<svg xmlns="http://www.w3.org/2000/svg" height="763pt" version="1.1" viewBox="-132 0 763 763.75246" width="763pt">
<g id="surface1">
<path d="M 487.265625 676.363281 L 412.359375 676.363281 L 412.359375 239.410156 C 412.359375 234.738281 409.757812 230.46875 405.613281 228.320312 C 401.46875 226.175781 396.46875 226.523438 392.65625 229.222656 L 344.671875 263.199219 L 338.128906 243.054688 L 449.527344 162.121094 C 453.902344 158.9375 455.730469 153.304688 454.0625 148.160156 C 452.386719 143.015625 447.59375 139.535156 442.1875 139.535156 L 304.480469 139.535156 L 261.9375 8.585938 C 260.25 3.460938 255.472656 0 250.078125 0 C 244.683594 0 239.90625 3.460938 238.210938 8.585938 L 195.648438 139.535156 L 57.941406 139.535156 C 52.53125 139.535156 47.742188 143.015625 46.066406 148.160156 C 44.398438 153.304688 46.226562 158.9375 50.601562 162.121094 L 162 243.054688 L 119.457031 373.996094 C 117.773438 379.152344 119.601562 384.789062 123.976562 387.980469 C 128.359375 391.160156 134.289062 391.160156 138.667969 387.96875 L 250.0625 307.035156 L 266.292969 318.808594 L 93.035156 441.457031 C 89.730469 443.796875 87.765625 447.597656 87.765625 451.644531 L 87.765625 676.363281 L 12.859375 676.363281 C 5.96875 676.363281 0.375 681.949219 0.375 688.847656 L 0.375 751.269531 C 0.375 758.160156 5.96875 763.753906 12.859375 763.753906 L 487.265625 763.753906 C 494.160156 763.753906 499.75 758.160156 499.75 751.269531 L 499.75 688.847656 C 499.75 681.949219 494.160156 676.363281 487.265625 676.363281 Z M 250.0625 279.113281 C 247.425781 279.113281 244.859375 279.941406 242.722656 281.496094 L 155.085938 345.167969 L 188.558594 242.128906 C 190.226562 236.988281 188.398438 231.351562 184.023438 228.175781 L 96.367188 164.503906 L 204.710938 164.503906 C 210.117188 164.503906 214.910156 161.023438 216.578125 155.878906 L 250.0625 52.84375 L 283.550781 155.878906 C 285.21875 161.023438 290.011719 164.503906 295.414062 164.503906 L 403.761719 164.503906 L 316.109375 228.175781 C 311.726562 231.351562 309.898438 236.988281 311.570312 242.128906 L 345.046875 345.167969 L 257.402344 281.496094 C 255.269531 279.941406 252.707031 279.113281 250.0625 279.113281 Z M 112.734375 458.097656 L 287.613281 334.292969 L 361.460938 387.96875 C 365.835938 391.152344 371.761719 391.152344 376.140625 387.980469 C 380.515625 384.792969 382.34375 379.15625 380.675781 374.015625 L 352.75 288.09375 L 387.390625 263.539062 L 387.390625 676.363281 L 112.734375 676.363281 Z M 474.78125 738.785156 L 25.34375 738.785156 L 25.34375 701.332031 L 474.78125 701.332031 Z M 474.78125 738.785156 " style=" stroke:none;fill-rule:nonzero;fill:rgb(0%,0%,0%);fill-opacity:1;" />
</g>
</svg>