<?xml version="1.0" encoding="UTF-8" standalone="no"?>
<!-- Created with Inkscape (http://www.inkscape.org/) -->

<svg
   version="1.1"
   id="svg8604"
   xml:space="preserve"
   width="682.66669"
   height="682.66669"
   viewBox="0 0 682.66669 682.66669"
   xmlns="http://www.w3.org/2000/svg"
   xmlns:svg="http://www.w3.org/2000/svg"><defs
     id="defs8608"><clipPath
       clipPathUnits="userSpaceOnUse"
       id="clipPath8618"><path
         d="M 0,512 H 512 V 0 H 0 Z"
         id="path8616" /></clipPath></defs><g
     id="g8610"
     transform="matrix(1.3333333,0,0,-1.3333333,0,682.66667)"><g
       id="g8612"><g
         id="g8614"
         clip-path="url(#clipPath8618)"><g
           id="g8620"
           transform="translate(226.0698,61.6211)"><path
             d="m 0,0 23.417,61.483 c 0.479,1.17 2.134,1.171 2.615,0.003 L 49.236,0"
             style="fill:none;stroke:#000000;stroke-width:17;stroke-linecap:round;stroke-linejoin:round;stroke-miterlimit:10;stroke-dasharray:none;stroke-opacity:1"
             id="path8622" /></g><g
           id="g8624"
           transform="translate(233.373,76.9336)"><path
             d="M 0,0 H 34.748"
             style="fill:none;stroke:#000000;stroke-width:17;stroke-linecap:round;stroke-linejoin:round;stroke-miterlimit:10;stroke-dasharray:none;stroke-opacity:1"
             id="path8626" /></g><g
           id="g8628"
           transform="translate(302.5117,61.6211)"><path
             d="M 0,0 V 62.245 L 42.084,1.305 c 0.78,-1.127 1.615,-0.575 1.615,0.796 l -0.582,60.26"
             style="fill:none;stroke:#000000;stroke-width:17;stroke-linecap:round;stroke-linejoin:round;stroke-miterlimit:10;stroke-dasharray:none;stroke-opacity:1"
             id="path8630" /></g><g
           id="g8632"
           transform="translate(376.9395,122.9971)"><path
             d="M 0,0 V -59.471"
             style="fill:none;stroke:#000000;stroke-width:17;stroke-linecap:round;stroke-linejoin:round;stroke-miterlimit:10;stroke-dasharray:none;stroke-opacity:1"
             id="path8634" /></g><g
           id="g8636"
           transform="translate(418.5176,92.8018)"><path
             d="m 0,0 c 0,-16.675 -9.255,-29.869 -23.937,-30.126 -4.887,-0.085 -17.519,-0.133 -17.519,-0.133 0,0 -0.078,21.92 -0.078,30.325 0,6.904 -0.044,30.193 -0.044,30.193 h 17.14 C -8.334,30.259 0,16.675 0,0 Z"
             style="fill:none;stroke:#000000;stroke-width:17;stroke-linecap:round;stroke-linejoin:round;stroke-miterlimit:10;stroke-dasharray:none;stroke-opacity:1"
             id="path8638" /></g><g
           id="g8640"
           transform="translate(130.9482,109.6328)"><path
             d="m 0,0 c 0,-7.925 -6.424,-14.35 -14.35,-14.35 -3.93,0 -18.114,-0.063 -18.114,-0.063 V 0 14.35 H -14.35 C -6.424,14.35 0,7.926 0,0 Z"
             style="fill:none;stroke:#000000;stroke-width:17;stroke-linecap:round;stroke-linejoin:round;stroke-miterlimit:10;stroke-dasharray:none;stroke-opacity:1"
             id="path8642" /></g><g
           id="g8644"
           transform="translate(136.5483,78.4805)"><path
             d="m 0,0 c 0,-9.271 -7.515,-16.786 -16.786,-16.786 -4.598,0 -21.278,-0.073 -21.278,-0.073 V 0 16.786 h 21.278 C -7.515,16.786 0,9.271 0,0 Z"
             style="fill:none;stroke:#000000;stroke-width:17;stroke-linecap:round;stroke-linejoin:round;stroke-miterlimit:10;stroke-dasharray:none;stroke-opacity:1"
             id="path8646" /></g><g
           id="g8648"
           transform="translate(172.5601,91.3848)"><path
             d="M 0,0 26.196,-29.764"
             style="fill:none;stroke:#000000;stroke-width:17;stroke-linecap:round;stroke-linejoin:round;stroke-miterlimit:10;stroke-dasharray:none;stroke-opacity:1"
             id="path8650" /></g><g
           id="g8652"
           transform="translate(165.04,123.9824)"><path
             d="M 0,0 V -62.361"
             style="fill:none;stroke:#000000;stroke-width:17;stroke-linecap:round;stroke-linejoin:round;stroke-miterlimit:10;stroke-dasharray:none;stroke-opacity:1"
             id="path8654" /></g><g
           id="g8656"
           transform="translate(198.7563,107.7754)"><path
             d="m 0,0 c 0,-8.951 -7.849,-16.207 -17.125,-16.207 -4.6,0 -16.456,-0.071 -16.456,-0.071 0,0 -0.074,11.766 -0.074,16.278 0,3.706 -0.041,16.207 -0.041,16.207 h 16.571 C -7.849,16.207 0,8.951 0,0 Z"
             style="fill:none;stroke:#000000;stroke-width:17;stroke-linecap:round;stroke-linejoin:round;stroke-miterlimit:10;stroke-dasharray:none;stroke-opacity:1"
             id="path8658" /></g><g
           id="g8660"
           transform="translate(502.001,25.9502)"><path
             d="M 0,0 H -492.002 L -450,65.197 -492.002,133.773 H 0 L -39,65.197 Z"
             style="fill:none;stroke:#000000;stroke-width:20;stroke-linecap:round;stroke-linejoin:round;stroke-miterlimit:10;stroke-dasharray:none;stroke-opacity:1"
             id="path8662" /></g><g
           id="g8664"
           transform="translate(464.8057,232.1797)"><path
             d="m 0,0 c 5.99,-8.49 8.78,-18.07 8.78,-27.49 0,-19.2 -11.59,-37.74 -31.34,-44.97 h -372.48 c -19.75,7.23 -31.35,25.779 -31.35,44.98 0,9.419 2.79,18.99 8.77,27.48 5.84,8.25 8.75,17.92 8.75,27.569 0,9.651 -2.91,19.311 -8.75,27.571 -5.98,8.48 -8.77,18.049 -8.77,27.469 0,19.561 12.03,38.441 32.45,45.38 9.58,3.261 17.61,9.361 23.29,17.171 5.67,7.81 8.98,17.34 9.13,27.46 0.36,26.93 22.5,47.19 47.73,47.19 4.67,0 9.46,-0.701 14.23,-2.18 4.67,-1.441 9.43,-2.151 14.15,-2.151 14.81,0 29.12,6.901 38.31,19.201 9.56,12.79 23.93,19.19 38.29,19.19 14.371,0 28.75,-6.4 38.31,-19.19 12.11,-16.21 33.12,-23.031 52.44,-17.05 4.781,1.479 9.57,2.18 14.241,2.18 25.239,0 47.38,-20.26 47.739,-47.19 0.13,-10.12 3.45,-19.65 9.12,-27.46 5.69,-7.81 13.72,-13.91 23.3,-17.171 C -3.24,121.05 8.78,102.18 8.78,82.62 8.78,73.199 5.99,63.62 0,55.14 -5.83,46.88 -8.74,37.22 -8.74,27.569 -8.74,17.92 -5.83,8.25 0,0 Z"
             style="fill:none;stroke:#000000;stroke-width:20;stroke-linecap:round;stroke-linejoin:round;stroke-miterlimit:10;stroke-dasharray:none;stroke-opacity:1"
             id="path8666" /></g><g
           id="g8668"
           transform="translate(369.1924,282.7617)"><path
             d="m 0,0 c 0,-11.488 -9.313,-20.801 -20.8,-20.801 -11.488,0 -20.801,9.313 -20.801,20.801 0,11.487 9.313,20.801 20.801,20.801 C -9.313,20.801 0,11.487 0,0 Z"
             style="fill:none;stroke:#000000;stroke-width:20;stroke-linecap:round;stroke-linejoin:round;stroke-miterlimit:10;stroke-dasharray:none;stroke-opacity:1"
             id="path8670" /></g><g
           id="g8672"
           transform="translate(346.9238,262.0195)"><path
             d="M 0,0 -17.238,-54.168 H -161.24 L -178.071,0.01 c 5.519,0.397 10.426,2.964 13.919,6.843 l 17.991,-13.034 c 11.19,-8.104 26.88,-5.172 34.394,6.415 l 13.4,20.669 c 2.932,-1.578 6.282,-2.473 9.846,-2.473 3.563,0 6.913,0.895 9.845,2.473 L -65.408,0.437 c 7.554,-11.667 23.387,-14.539 34.567,-6.282 L -13.878,6.689 C -10.376,2.881 -5.479,0.377 0,0 Z"
             style="fill:none;stroke:#000000;stroke-width:20;stroke-linecap:round;stroke-linejoin:round;stroke-miterlimit:10;stroke-dasharray:none;stroke-opacity:1"
             id="path8674" /></g><g
           id="g8676"
           transform="translate(188.0786,282.7617)"><path
             d="m 0,0 c 0,-11.488 -9.313,-20.801 -20.8,-20.801 -11.488,0 -20.801,9.313 -20.801,20.801 0,11.487 9.313,20.801 20.801,20.801 C -9.313,20.801 0,11.487 0,0 Z"
             style="fill:none;stroke:#000000;stroke-width:20;stroke-linecap:round;stroke-linejoin:round;stroke-miterlimit:10;stroke-dasharray:none;stroke-opacity:1"
             id="path8678" /></g><g
           id="g8680"
           transform="translate(279.2041,301.25)"><path
             d="m 0,0 c 0,-11.488 -9.313,-20.801 -20.801,-20.801 -11.488,0 -20.8,9.313 -20.8,20.801 0,11.487 9.312,20.801 20.8,20.801 C -9.313,20.801 0,11.487 0,0 Z"
             style="fill:none;stroke:#000000;stroke-width:20;stroke-linecap:round;stroke-linejoin:round;stroke-miterlimit:10;stroke-dasharray:none;stroke-opacity:1"
             id="path8682" /></g><g
           id="g8684"
           transform="translate(213.3862,408.8418)"><path
             d="m 0,0 c -64.55,-19.325 -111.59,-79.159 -111.59,-150.002 0,-37.61 13.259,-72.131 35.38,-99.12 h 242.37 c 22.12,26.989 35.38,61.51 35.38,99.12 0,71.741 -48.245,132.2 -114.049,150.725"
             style="fill:none;stroke:#000000;stroke-width:20;stroke-linecap:round;stroke-linejoin:round;stroke-miterlimit:10;stroke-dasharray:none;stroke-opacity:1"
             id="path8686" /></g><g
           id="g8688"
           transform="translate(258.3662,415.4092)"><path
             d="M 0,0 V 0"
             style="fill:none;stroke:#000000;stroke-width:20;stroke-linecap:round;stroke-linejoin:round;stroke-miterlimit:10;stroke-dasharray:none;stroke-opacity:1"
             id="path8690" /></g></g></g></g></svg>
