<?xml version="1.0" encoding="UTF-8" standalone="no"?>
<!-- Created with Inkscape (http://www.inkscape.org/) -->

<svg
   version="1.1"
   id="svg1866"
   xml:space="preserve"
   width="682.66669"
   height="682.66669"
   viewBox="0 0 682.66669 682.66669"
   xmlns="http://www.w3.org/2000/svg"
   xmlns:svg="http://www.w3.org/2000/svg"><defs
     id="defs1870"><clipPath
       clipPathUnits="userSpaceOnUse"
       id="clipPath1880"><path
         d="M 0,512 H 512 V 0 H 0 Z"
         id="path1878" /></clipPath></defs><g
     id="g1872"
     transform="matrix(1.3333333,0,0,-1.3333333,0,682.66667)"><g
       id="g1874"><g
         id="g1876"
         clip-path="url(#clipPath1880)"><g
           id="g1882"
           transform="translate(10.002,326.6035)"><path
             d="m 0,0 c 0.322,60.148 49.62,109.273 109.769,109.396 25.758,0.053 49.459,-8.75 68.229,-23.531 18.715,14.738 42.33,23.531 68,23.531 25.67,0 49.285,-8.793 68,-23.531 18.771,14.781 42.471,23.584 68.23,23.531 C 442.376,109.273 491.674,60.148 491.996,0 c 0.216,-40.083 -21.009,-75.225 -52.872,-94.625 -26.607,-16.201 -43.126,-44.827 -43.126,-75.979 h -300 c 0,31.152 -16.519,59.778 -43.126,75.979 C 21.009,-75.225 -0.216,-40.083 0,0 Z"
             style="fill:none;stroke:#000000;stroke-width:20;stroke-linecap:round;stroke-linejoin:round;stroke-miterlimit:10;stroke-dasharray:500, 45, 0, 45, 1000, 0;stroke-dashoffset:0;stroke-opacity:1"
             id="path1884" /></g><path
           d="M 406,76 H 106 v 80 h 300 z"
           style="fill:none;stroke:#000000;stroke-width:20;stroke-linecap:round;stroke-linejoin:round;stroke-miterlimit:10;stroke-dasharray:none;stroke-opacity:1"
           id="path1886" /><g
           id="g1888"
           transform="translate(367,262)"><path
             d="M 0,0 C -40,-33 -40,-66 -40,-66"
             style="fill:none;stroke:#000000;stroke-width:20;stroke-linecap:round;stroke-linejoin:round;stroke-miterlimit:10;stroke-dasharray:none;stroke-opacity:1"
             id="path1890" /></g><g
           id="g1892"
           transform="translate(145,262)"><path
             d="M 0,0 C 41.984,-33 39.985,-66 39.985,-66"
             style="fill:none;stroke:#000000;stroke-width:20;stroke-linecap:round;stroke-linejoin:round;stroke-miterlimit:10;stroke-dasharray:none;stroke-opacity:1"
             id="path1894" /></g><g
           id="g1896"
           transform="translate(256,262)"><path
             d="M 0,0 V -106"
             style="fill:none;stroke:#000000;stroke-width:20;stroke-linecap:round;stroke-linejoin:round;stroke-miterlimit:10;stroke-dasharray:none;stroke-opacity:1"
             id="path1898" /></g><g
           id="g1900"
           transform="translate(323.999,412.4673)"><path
             d="M 0,0 C 16.384,-12.903 29.011,-30.363 35.971,-50.467"
             style="fill:none;stroke:#000000;stroke-width:20;stroke-linecap:round;stroke-linejoin:round;stroke-miterlimit:10;stroke-dasharray:none;stroke-opacity:1"
             id="path1902" /></g><g
           id="g1904"
           transform="translate(152.0303,362)"><path
             d="M 0,0 C 6.96,20.104 19.587,37.564 35.971,50.467"
             style="fill:none;stroke:#000000;stroke-width:20;stroke-linecap:round;stroke-linejoin:round;stroke-miterlimit:10;stroke-dasharray:none;stroke-opacity:1"
             id="path1906" /></g></g></g></g></svg>
